<mxfile host="app.diagrams.net" modified="2024-04-30T12:12:27.794Z" agent="Mozilla/5.0 (Windows NT 10.0; Win64; x64; rv:109.0) Gecko/20100101 Firefox/118.0" etag="Q6R170nvtzdd83EL22G7" version="24.3.1" type="device">
  <diagram id="C5RBs43oDa-KdzZeNtuy" name="Page-1">
    <mxGraphModel dx="1547" dy="966" grid="1" gridSize="10" guides="1" tooltips="1" connect="1" arrows="1" fold="1" page="1" pageScale="1" pageWidth="290" pageHeight="280" math="0" shadow="0">
      <root>
        <mxCell id="WIyWlLk6GJQsqaUBKTNV-0" />
        <mxCell id="WIyWlLk6GJQsqaUBKTNV-1" parent="WIyWlLk6GJQsqaUBKTNV-0" />
        <mxCell id="TJ-vmtBEINeXQF5SDcyb-18" value="START COMMAND" style="shape=table;startSize=60;container=1;collapsible=0;childLayout=tableLayout;fontSize=18;" parent="WIyWlLk6GJQsqaUBKTNV-1" vertex="1">
          <mxGeometry x="249.86" y="-260" width="620" height="790" as="geometry" />
        </mxCell>
        <mxCell id="TJ-vmtBEINeXQF5SDcyb-19" value="" style="shape=tableRow;horizontal=0;startSize=0;swimlaneHead=0;swimlaneBody=0;strokeColor=inherit;top=0;left=0;bottom=0;right=0;collapsible=0;dropTarget=0;fillColor=none;points=[[0,0.5],[1,0.5]];portConstraint=eastwest;" parent="TJ-vmtBEINeXQF5SDcyb-18" vertex="1">
          <mxGeometry y="60" width="620" height="730" as="geometry" />
        </mxCell>
        <mxCell id="TJ-vmtBEINeXQF5SDcyb-20" value="" style="shape=partialRectangle;html=1;whiteSpace=wrap;connectable=0;strokeColor=inherit;overflow=hidden;fillColor=none;top=0;left=0;bottom=0;right=0;pointerEvents=1;" parent="TJ-vmtBEINeXQF5SDcyb-19" vertex="1">
          <mxGeometry width="620" height="730" as="geometry">
            <mxRectangle width="620" height="730" as="alternateBounds" />
          </mxGeometry>
        </mxCell>
        <mxCell id="TJ-vmtBEINeXQF5SDcyb-24" value="REGISTER COMMAND" style="shape=table;startSize=60;container=1;collapsible=0;childLayout=tableLayout;fontSize=18;" parent="WIyWlLk6GJQsqaUBKTNV-1" vertex="1">
          <mxGeometry x="-220.14" y="-260" width="430" height="790" as="geometry" />
        </mxCell>
        <mxCell id="TJ-vmtBEINeXQF5SDcyb-25" value="" style="shape=tableRow;horizontal=0;startSize=0;swimlaneHead=0;swimlaneBody=0;strokeColor=inherit;top=0;left=0;bottom=0;right=0;collapsible=0;dropTarget=0;fillColor=none;points=[[0,0.5],[1,0.5]];portConstraint=eastwest;" parent="TJ-vmtBEINeXQF5SDcyb-24" vertex="1">
          <mxGeometry y="60" width="430" height="730" as="geometry" />
        </mxCell>
        <mxCell id="TJ-vmtBEINeXQF5SDcyb-26" value="" style="shape=partialRectangle;html=1;whiteSpace=wrap;connectable=0;strokeColor=inherit;overflow=hidden;fillColor=none;top=0;left=0;bottom=0;right=0;pointerEvents=1;" parent="TJ-vmtBEINeXQF5SDcyb-25" vertex="1">
          <mxGeometry width="430" height="730" as="geometry">
            <mxRectangle width="430" height="730" as="alternateBounds" />
          </mxGeometry>
        </mxCell>
        <mxCell id="TJ-vmtBEINeXQF5SDcyb-27" value="JOIN COMMAND" style="shape=table;startSize=60;container=1;collapsible=0;childLayout=tableLayout;fontSize=18;" parent="WIyWlLk6GJQsqaUBKTNV-1" vertex="1">
          <mxGeometry x="907.86" y="-260" width="350.14" height="790" as="geometry" />
        </mxCell>
        <mxCell id="TJ-vmtBEINeXQF5SDcyb-28" value="" style="shape=tableRow;horizontal=0;startSize=0;swimlaneHead=0;swimlaneBody=0;strokeColor=inherit;top=0;left=0;bottom=0;right=0;collapsible=0;dropTarget=0;fillColor=none;points=[[0,0.5],[1,0.5]];portConstraint=eastwest;" parent="TJ-vmtBEINeXQF5SDcyb-27" vertex="1">
          <mxGeometry y="60" width="350.14" height="730" as="geometry" />
        </mxCell>
        <mxCell id="TJ-vmtBEINeXQF5SDcyb-29" value="" style="shape=partialRectangle;html=1;whiteSpace=wrap;connectable=0;strokeColor=inherit;overflow=hidden;fillColor=none;top=0;left=0;bottom=0;right=0;pointerEvents=1;" parent="TJ-vmtBEINeXQF5SDcyb-28" vertex="1">
          <mxGeometry width="350" height="730" as="geometry">
            <mxRectangle width="350" height="730" as="alternateBounds" />
          </mxGeometry>
        </mxCell>
        <mxCell id="TJ-vmtBEINeXQF5SDcyb-33" value="" style="edgeStyle=orthogonalEdgeStyle;rounded=0;orthogonalLoop=1;jettySize=auto;html=1;strokeWidth=3;" parent="WIyWlLk6GJQsqaUBKTNV-1" source="TJ-vmtBEINeXQF5SDcyb-30" target="TJ-vmtBEINeXQF5SDcyb-32" edge="1">
          <mxGeometry relative="1" as="geometry" />
        </mxCell>
        <mxCell id="TJ-vmtBEINeXQF5SDcyb-30" value="&lt;font style=&quot;font-size: 18px;&quot;&gt;run command &lt;br&gt;abc_register&lt;br&gt;&lt;/font&gt;" style="shape=parallelogram;html=1;strokeWidth=2;perimeter=parallelogramPerimeter;whiteSpace=wrap;rounded=1;arcSize=12;size=0.23;" parent="WIyWlLk6GJQsqaUBKTNV-1" vertex="1">
          <mxGeometry x="-100.14" y="-80" width="190" height="80" as="geometry" />
        </mxCell>
        <mxCell id="TJ-vmtBEINeXQF5SDcyb-31" value="" style="edgeStyle=orthogonalEdgeStyle;rounded=0;orthogonalLoop=1;jettySize=auto;html=1;strokeWidth=3;" parent="WIyWlLk6GJQsqaUBKTNV-1" source="TJ-vmtBEINeXQF5SDcyb-0" target="TJ-vmtBEINeXQF5SDcyb-30" edge="1">
          <mxGeometry relative="1" as="geometry" />
        </mxCell>
        <mxCell id="TJ-vmtBEINeXQF5SDcyb-0" value="&lt;font style=&quot;font-size: 18px;&quot;&gt;START&lt;/font&gt;" style="strokeWidth=2;html=1;shape=mxgraph.flowchart.terminator;whiteSpace=wrap;" parent="WIyWlLk6GJQsqaUBKTNV-1" vertex="1">
          <mxGeometry x="-75.14" y="-180" width="140" height="60" as="geometry" />
        </mxCell>
        <mxCell id="TJ-vmtBEINeXQF5SDcyb-37" value="" style="edgeStyle=orthogonalEdgeStyle;rounded=0;orthogonalLoop=1;jettySize=auto;html=1;strokeWidth=3;" parent="WIyWlLk6GJQsqaUBKTNV-1" source="TJ-vmtBEINeXQF5SDcyb-32" target="TJ-vmtBEINeXQF5SDcyb-36" edge="1">
          <mxGeometry relative="1" as="geometry" />
        </mxCell>
        <mxCell id="qRgpjpJHurqTUc2hLSrm-1" value="" style="edgeStyle=orthogonalEdgeStyle;rounded=0;orthogonalLoop=1;jettySize=auto;html=1;strokeWidth=3;" parent="WIyWlLk6GJQsqaUBKTNV-1" source="TJ-vmtBEINeXQF5SDcyb-32" target="qRgpjpJHurqTUc2hLSrm-0" edge="1">
          <mxGeometry relative="1" as="geometry" />
        </mxCell>
        <mxCell id="qRgpjpJHurqTUc2hLSrm-2" style="edgeStyle=orthogonalEdgeStyle;rounded=0;orthogonalLoop=1;jettySize=auto;html=1;strokeWidth=3;" parent="WIyWlLk6GJQsqaUBKTNV-1" source="TJ-vmtBEINeXQF5SDcyb-32" target="TJ-vmtBEINeXQF5SDcyb-34" edge="1">
          <mxGeometry relative="1" as="geometry" />
        </mxCell>
        <mxCell id="TJ-vmtBEINeXQF5SDcyb-32" value="&lt;font style=&quot;font-size: 18px;&quot;&gt;get player id and username, then insert to abc_players table&lt;br&gt;&lt;/font&gt;" style="rounded=1;whiteSpace=wrap;html=1;absoluteArcSize=1;arcSize=14;strokeWidth=2;" parent="WIyWlLk6GJQsqaUBKTNV-1" vertex="1">
          <mxGeometry x="-125.14" y="50" width="240" height="100" as="geometry" />
        </mxCell>
        <mxCell id="TJ-vmtBEINeXQF5SDcyb-43" style="edgeStyle=orthogonalEdgeStyle;rounded=0;orthogonalLoop=1;jettySize=auto;html=1;entryX=0;entryY=0.5;entryDx=0;entryDy=0;strokeWidth=3;" parent="WIyWlLk6GJQsqaUBKTNV-1" source="TJ-vmtBEINeXQF5SDcyb-34" target="TJ-vmtBEINeXQF5SDcyb-41" edge="1">
          <mxGeometry relative="1" as="geometry">
            <Array as="points">
              <mxPoint x="229.86" y="390" />
              <mxPoint x="229.86" y="-90" />
            </Array>
          </mxGeometry>
        </mxCell>
        <mxCell id="tKS2Doeftf1E8RGUJmwV-0" value="" style="edgeStyle=orthogonalEdgeStyle;rounded=0;orthogonalLoop=1;jettySize=auto;html=1;strokeWidth=3;" parent="WIyWlLk6GJQsqaUBKTNV-1" source="TJ-vmtBEINeXQF5SDcyb-34" target="OBPURcOy8F1kF4xGN7Fw-0" edge="1">
          <mxGeometry relative="1" as="geometry">
            <Array as="points">
              <mxPoint x="-240.14" y="390" />
              <mxPoint x="-240.14" y="680" />
            </Array>
          </mxGeometry>
        </mxCell>
        <mxCell id="TJ-vmtBEINeXQF5SDcyb-34" value="&lt;font style=&quot;font-size: 18px;&quot;&gt;display register success message&lt;/font&gt;" style="strokeWidth=2;html=1;shape=mxgraph.flowchart.display;whiteSpace=wrap;" parent="WIyWlLk6GJQsqaUBKTNV-1" vertex="1">
          <mxGeometry x="-98.64" y="340" width="185" height="100" as="geometry" />
        </mxCell>
        <mxCell id="TJ-vmtBEINeXQF5SDcyb-36" value="&lt;font style=&quot;font-size: 18px;&quot;&gt;abc_players&lt;br&gt;table&lt;/font&gt;" style="strokeWidth=2;html=1;shape=mxgraph.flowchart.merge_or_storage;whiteSpace=wrap;strokeColor=default;horizontal=1;verticalAlign=top;" parent="WIyWlLk6GJQsqaUBKTNV-1" vertex="1">
          <mxGeometry x="-180.14" y="210" width="150" height="80" as="geometry" />
        </mxCell>
        <mxCell id="TJ-vmtBEINeXQF5SDcyb-45" value="" style="edgeStyle=orthogonalEdgeStyle;rounded=0;orthogonalLoop=1;jettySize=auto;html=1;strokeWidth=3;" parent="WIyWlLk6GJQsqaUBKTNV-1" source="TJ-vmtBEINeXQF5SDcyb-41" target="TJ-vmtBEINeXQF5SDcyb-44" edge="1">
          <mxGeometry relative="1" as="geometry">
            <Array as="points">
              <mxPoint x="399.86" y="35" />
              <mxPoint x="384.86" y="35" />
            </Array>
          </mxGeometry>
        </mxCell>
        <mxCell id="TJ-vmtBEINeXQF5SDcyb-41" value="&lt;font style=&quot;font-size: 18px;&quot;&gt;&amp;nbsp;&amp;nbsp;&amp;nbsp;&amp;nbsp;&amp;nbsp;&amp;nbsp;&amp;nbsp; run command abc_start &lt;br&gt;then input option: &lt;br&gt;- game_round&lt;br&gt;- categories&lt;font&gt;&lt;br&gt;- max_player&lt;br&gt;- room_name&lt;br&gt;- room_password&lt;br&gt;&lt;/font&gt;&lt;/font&gt;" style="shape=parallelogram;html=1;strokeWidth=2;perimeter=parallelogramPerimeter;whiteSpace=wrap;rounded=1;arcSize=12;size=0.23;" parent="WIyWlLk6GJQsqaUBKTNV-1" vertex="1">
          <mxGeometry x="279.86" y="-180" width="290" height="180" as="geometry" />
        </mxCell>
        <mxCell id="Vhk4U5-7Be6q2ngZpBKr-4" value="" style="rounded=0;orthogonalLoop=1;jettySize=auto;html=1;strokeWidth=3;strokeColor=default;edgeStyle=orthogonalEdgeStyle;entryX=0.26;entryY=0.616;entryDx=0;entryDy=0;entryPerimeter=0;" parent="WIyWlLk6GJQsqaUBKTNV-1" source="TJ-vmtBEINeXQF5SDcyb-44" target="TJ-vmtBEINeXQF5SDcyb-49" edge="1">
          <mxGeometry relative="1" as="geometry">
            <Array as="points">
              <mxPoint x="529.86" y="140" />
              <mxPoint x="529.86" y="59" />
            </Array>
          </mxGeometry>
        </mxCell>
        <mxCell id="Vhk4U5-7Be6q2ngZpBKr-5" value="" style="edgeStyle=orthogonalEdgeStyle;rounded=0;orthogonalLoop=1;jettySize=auto;html=1;strokeWidth=3;" parent="WIyWlLk6GJQsqaUBKTNV-1" source="TJ-vmtBEINeXQF5SDcyb-44" target="TJ-vmtBEINeXQF5SDcyb-51" edge="1">
          <mxGeometry relative="1" as="geometry" />
        </mxCell>
        <mxCell id="TJ-vmtBEINeXQF5SDcyb-44" value="&lt;font style=&quot;font-size: 18px;&quot;&gt;get player id and the option values, then insert to abc_rooms&lt;/font&gt;" style="rounded=1;whiteSpace=wrap;html=1;absoluteArcSize=1;arcSize=14;strokeWidth=2;" parent="WIyWlLk6GJQsqaUBKTNV-1" vertex="1">
          <mxGeometry x="269.86" y="100" width="230" height="120" as="geometry" />
        </mxCell>
        <mxCell id="TJ-vmtBEINeXQF5SDcyb-46" value="STATS COMMAND" style="shape=table;startSize=60;container=1;collapsible=0;childLayout=tableLayout;fontSize=18;" parent="WIyWlLk6GJQsqaUBKTNV-1" vertex="1">
          <mxGeometry x="-222.14" y="560" width="432" height="790" as="geometry" />
        </mxCell>
        <mxCell id="TJ-vmtBEINeXQF5SDcyb-47" value="" style="shape=tableRow;horizontal=0;startSize=0;swimlaneHead=0;swimlaneBody=0;strokeColor=inherit;top=0;left=0;bottom=0;right=0;collapsible=0;dropTarget=0;fillColor=none;points=[[0,0.5],[1,0.5]];portConstraint=eastwest;" parent="TJ-vmtBEINeXQF5SDcyb-46" vertex="1">
          <mxGeometry y="60" width="432" height="730" as="geometry" />
        </mxCell>
        <mxCell id="TJ-vmtBEINeXQF5SDcyb-48" value="" style="shape=partialRectangle;html=1;whiteSpace=wrap;connectable=0;strokeColor=inherit;overflow=hidden;fillColor=none;top=0;left=0;bottom=0;right=0;pointerEvents=1;" parent="TJ-vmtBEINeXQF5SDcyb-47" vertex="1">
          <mxGeometry width="432" height="730" as="geometry">
            <mxRectangle width="432" height="730" as="alternateBounds" />
          </mxGeometry>
        </mxCell>
        <mxCell id="TJ-vmtBEINeXQF5SDcyb-49" value="&lt;font style=&quot;font-size: 18px;&quot;&gt;abc_rooms&lt;br&gt;table&lt;/font&gt;" style="strokeWidth=2;html=1;shape=mxgraph.flowchart.merge_or_storage;whiteSpace=wrap;verticalAlign=top;" parent="WIyWlLk6GJQsqaUBKTNV-1" vertex="1">
          <mxGeometry x="539.86" y="10" width="150" height="80" as="geometry" />
        </mxCell>
        <mxCell id="TJ-vmtBEINeXQF5SDcyb-54" value="" style="edgeStyle=orthogonalEdgeStyle;rounded=0;orthogonalLoop=1;jettySize=auto;html=1;strokeWidth=3;" parent="WIyWlLk6GJQsqaUBKTNV-1" source="TJ-vmtBEINeXQF5SDcyb-51" target="TJ-vmtBEINeXQF5SDcyb-53" edge="1">
          <mxGeometry relative="1" as="geometry" />
        </mxCell>
        <mxCell id="TJ-vmtBEINeXQF5SDcyb-51" value="&lt;font style=&quot;font-size: 18px;&quot;&gt;create a room (thread channel) for current game then implement the rules&lt;br&gt;&lt;/font&gt;" style="rounded=1;whiteSpace=wrap;html=1;absoluteArcSize=1;arcSize=14;strokeWidth=2;" parent="WIyWlLk6GJQsqaUBKTNV-1" vertex="1">
          <mxGeometry x="269.86" y="330" width="230" height="120" as="geometry" />
        </mxCell>
        <mxCell id="khPwtYyF7q92nj60VyBp-0" value="" style="edgeStyle=orthogonalEdgeStyle;rounded=0;orthogonalLoop=1;jettySize=auto;html=1;strokeWidth=3;" parent="WIyWlLk6GJQsqaUBKTNV-1" source="TJ-vmtBEINeXQF5SDcyb-53" target="TJ-vmtBEINeXQF5SDcyb-56" edge="1">
          <mxGeometry relative="1" as="geometry" />
        </mxCell>
        <mxCell id="TJ-vmtBEINeXQF5SDcyb-53" value="&lt;font style=&quot;font-size: 18px;&quot;&gt;display game start, &lt;br&gt;room (thread) and round created message&lt;br&gt;&lt;/font&gt;" style="strokeWidth=2;html=1;shape=mxgraph.flowchart.display;whiteSpace=wrap;verticalAlign=middle;" parent="WIyWlLk6GJQsqaUBKTNV-1" vertex="1">
          <mxGeometry x="590" y="330" width="250" height="120" as="geometry" />
        </mxCell>
        <mxCell id="khPwtYyF7q92nj60VyBp-1" value="" style="edgeStyle=orthogonalEdgeStyle;rounded=0;orthogonalLoop=1;jettySize=auto;html=1;strokeWidth=3;" parent="WIyWlLk6GJQsqaUBKTNV-1" source="TJ-vmtBEINeXQF5SDcyb-56" target="Vhk4U5-7Be6q2ngZpBKr-0" edge="1">
          <mxGeometry relative="1" as="geometry">
            <Array as="points">
              <mxPoint x="890" y="140" />
              <mxPoint x="890" y="-90" />
            </Array>
          </mxGeometry>
        </mxCell>
        <mxCell id="TJ-vmtBEINeXQF5SDcyb-56" value="&lt;font style=&quot;font-size: 18px;&quot;&gt;player submit&lt;br&gt;answer in chat&lt;br&gt;&lt;/font&gt;" style="shape=parallelogram;html=1;strokeWidth=2;perimeter=parallelogramPerimeter;whiteSpace=wrap;rounded=1;arcSize=12;size=0.23;" parent="WIyWlLk6GJQsqaUBKTNV-1" vertex="1">
          <mxGeometry x="650" y="100" width="190" height="80" as="geometry" />
        </mxCell>
        <mxCell id="Vhk4U5-7Be6q2ngZpBKr-7" value="" style="edgeStyle=orthogonalEdgeStyle;rounded=0;orthogonalLoop=1;jettySize=auto;html=1;strokeWidth=3;" parent="WIyWlLk6GJQsqaUBKTNV-1" source="Vhk4U5-7Be6q2ngZpBKr-0" target="Vhk4U5-7Be6q2ngZpBKr-6" edge="1">
          <mxGeometry relative="1" as="geometry" />
        </mxCell>
        <mxCell id="Vhk4U5-7Be6q2ngZpBKr-0" value="&lt;font style=&quot;font-size: 18px;&quot;&gt;other player&lt;br&gt;run command abc_join&lt;br&gt;with options:&lt;br&gt;- room id / name&lt;br&gt;- room_password (?)&lt;br&gt;&lt;/font&gt;" style="shape=parallelogram;html=1;strokeWidth=2;perimeter=parallelogramPerimeter;whiteSpace=wrap;rounded=1;arcSize=12;size=0.23;" parent="WIyWlLk6GJQsqaUBKTNV-1" vertex="1">
          <mxGeometry x="945.36" y="-170" width="280" height="160" as="geometry" />
        </mxCell>
        <mxCell id="Vhk4U5-7Be6q2ngZpBKr-9" value="" style="edgeStyle=orthogonalEdgeStyle;rounded=0;orthogonalLoop=1;jettySize=auto;html=1;strokeWidth=3;" parent="WIyWlLk6GJQsqaUBKTNV-1" source="Vhk4U5-7Be6q2ngZpBKr-6" target="Vhk4U5-7Be6q2ngZpBKr-8" edge="1">
          <mxGeometry relative="1" as="geometry" />
        </mxCell>
        <mxCell id="Vhk4U5-7Be6q2ngZpBKr-6" value="&lt;font style=&quot;font-size: 18px;&quot;&gt;find the room id / name &lt;br&gt;from abc_rooms table&lt;br&gt;&lt;/font&gt;" style="rounded=1;whiteSpace=wrap;html=1;absoluteArcSize=1;arcSize=14;strokeWidth=2;" parent="WIyWlLk6GJQsqaUBKTNV-1" vertex="1">
          <mxGeometry x="955.36" y="40" width="230" height="90" as="geometry" />
        </mxCell>
        <mxCell id="Vhk4U5-7Be6q2ngZpBKr-11" value="" style="edgeStyle=orthogonalEdgeStyle;rounded=0;orthogonalLoop=1;jettySize=auto;html=1;strokeWidth=3;" parent="WIyWlLk6GJQsqaUBKTNV-1" source="Vhk4U5-7Be6q2ngZpBKr-8" target="Vhk4U5-7Be6q2ngZpBKr-10" edge="1">
          <mxGeometry relative="1" as="geometry" />
        </mxCell>
        <mxCell id="Vhk4U5-7Be6q2ngZpBKr-8" value="&lt;font style=&quot;font-size: 18px;&quot;&gt;reply  link to the game &lt;br&gt;room (thread) &lt;/font&gt;&lt;font style=&quot;font-size: 18px;&quot;&gt;&lt;br&gt;&lt;/font&gt;" style="strokeWidth=2;html=1;shape=mxgraph.flowchart.display;whiteSpace=wrap;verticalAlign=middle;" parent="WIyWlLk6GJQsqaUBKTNV-1" vertex="1">
          <mxGeometry x="964.04" y="180" width="212.64" height="100" as="geometry" />
        </mxCell>
        <mxCell id="khPwtYyF7q92nj60VyBp-3" value="" style="edgeStyle=orthogonalEdgeStyle;rounded=0;orthogonalLoop=1;jettySize=auto;html=1;strokeWidth=3;" parent="WIyWlLk6GJQsqaUBKTNV-1" source="Vhk4U5-7Be6q2ngZpBKr-10" target="khPwtYyF7q92nj60VyBp-2" edge="1">
          <mxGeometry relative="1" as="geometry" />
        </mxCell>
        <mxCell id="Vhk4U5-7Be6q2ngZpBKr-10" value="&lt;font style=&quot;font-size: 18px;&quot;&gt;player submit&lt;br&gt;answer in chat&lt;br&gt;&lt;/font&gt;" style="shape=parallelogram;html=1;strokeWidth=2;perimeter=parallelogramPerimeter;whiteSpace=wrap;rounded=1;arcSize=12;size=0.23;" parent="WIyWlLk6GJQsqaUBKTNV-1" vertex="1">
          <mxGeometry x="975.36" y="330" width="190" height="80" as="geometry" />
        </mxCell>
        <mxCell id="Vhk4U5-7Be6q2ngZpBKr-15" value="" style="edgeStyle=orthogonalEdgeStyle;rounded=0;orthogonalLoop=1;jettySize=auto;html=1;strokeWidth=3;" parent="WIyWlLk6GJQsqaUBKTNV-1" edge="1">
          <mxGeometry relative="1" as="geometry">
            <Array as="points">
              <mxPoint x="1409.86" y="360" />
              <mxPoint x="1409.86" y="360" />
            </Array>
            <mxPoint x="1409.8571428571431" y="300" as="targetPoint" />
          </mxGeometry>
        </mxCell>
        <mxCell id="9ZJagXFIJkBSP9IukB3M-2" value="" style="edgeStyle=orthogonalEdgeStyle;rounded=0;orthogonalLoop=1;jettySize=auto;html=1;strokeWidth=3;" parent="WIyWlLk6GJQsqaUBKTNV-1" edge="1">
          <mxGeometry relative="1" as="geometry">
            <mxPoint x="1569.8599999999997" y="440" as="targetPoint" />
          </mxGeometry>
        </mxCell>
        <mxCell id="9ZJagXFIJkBSP9IukB3M-22" value="" style="edgeStyle=orthogonalEdgeStyle;rounded=0;orthogonalLoop=1;jettySize=auto;html=1;strokeWidth=3;" parent="WIyWlLk6GJQsqaUBKTNV-1" edge="1">
          <mxGeometry relative="1" as="geometry">
            <mxPoint x="1694.8599999999997" y="120" as="targetPoint" />
          </mxGeometry>
        </mxCell>
        <mxCell id="OBPURcOy8F1kF4xGN7Fw-19" value="&lt;font style=&quot;font-size: 18px;&quot;&gt;YES&lt;/font&gt;" style="edgeLabel;html=1;align=center;verticalAlign=middle;resizable=0;points=[];" parent="9ZJagXFIJkBSP9IukB3M-22" vertex="1" connectable="0">
          <mxGeometry x="-0.0714" y="3" relative="1" as="geometry">
            <mxPoint y="1" as="offset" />
          </mxGeometry>
        </mxCell>
        <mxCell id="9ZJagXFIJkBSP9IukB3M-23" value="" style="edgeStyle=orthogonalEdgeStyle;rounded=0;orthogonalLoop=1;jettySize=auto;html=1;strokeWidth=3;" parent="WIyWlLk6GJQsqaUBKTNV-1" edge="1">
          <mxGeometry relative="1" as="geometry">
            <Array as="points">
              <mxPoint x="1859.86" y="255" />
              <mxPoint x="1859.86" y="-95" />
            </Array>
            <mxPoint x="1809.8599999999997" y="-94.99999999999989" as="targetPoint" />
          </mxGeometry>
        </mxCell>
        <mxCell id="OBPURcOy8F1kF4xGN7Fw-22" value="&lt;font style=&quot;font-size: 18px;&quot;&gt;NO&lt;/font&gt;" style="edgeLabel;html=1;align=center;verticalAlign=middle;resizable=0;points=[];" parent="9ZJagXFIJkBSP9IukB3M-23" vertex="1" connectable="0">
          <mxGeometry x="-0.7666" relative="1" as="geometry">
            <mxPoint x="1" as="offset" />
          </mxGeometry>
        </mxCell>
        <mxCell id="9ZJagXFIJkBSP9IukB3M-3" value="" style="edgeStyle=orthogonalEdgeStyle;rounded=0;orthogonalLoop=1;jettySize=auto;html=1;strokeWidth=3;" parent="WIyWlLk6GJQsqaUBKTNV-1" edge="1">
          <mxGeometry relative="1" as="geometry">
            <mxPoint x="1694.8599999999997" y="310" as="targetPoint" />
          </mxGeometry>
        </mxCell>
        <mxCell id="9ZJagXFIJkBSP9IukB3M-21" value="" style="edgeStyle=orthogonalEdgeStyle;rounded=0;orthogonalLoop=1;jettySize=auto;html=1;strokeWidth=3;" parent="WIyWlLk6GJQsqaUBKTNV-1" edge="1">
          <mxGeometry relative="1" as="geometry">
            <mxPoint x="1504.8599999999997" y="55" as="targetPoint" />
          </mxGeometry>
        </mxCell>
        <mxCell id="9ZJagXFIJkBSP9IukB3M-24" value="" style="edgeStyle=orthogonalEdgeStyle;rounded=0;orthogonalLoop=1;jettySize=auto;html=1;strokeWidth=3;" parent="WIyWlLk6GJQsqaUBKTNV-1" edge="1">
          <mxGeometry relative="1" as="geometry">
            <mxPoint x="1579.8599999999997" y="-105" as="sourcePoint" />
          </mxGeometry>
        </mxCell>
        <mxCell id="9ZJagXFIJkBSP9IukB3M-35" value="" style="edgeStyle=orthogonalEdgeStyle;rounded=0;orthogonalLoop=1;jettySize=auto;html=1;strokeWidth=3;" parent="WIyWlLk6GJQsqaUBKTNV-1" edge="1">
          <mxGeometry relative="1" as="geometry">
            <mxPoint x="1344.8599999999997" y="55" as="sourcePoint" />
          </mxGeometry>
        </mxCell>
        <mxCell id="9ZJagXFIJkBSP9IukB3M-37" value="" style="edgeStyle=orthogonalEdgeStyle;rounded=0;orthogonalLoop=1;jettySize=auto;html=1;strokeWidth=3;" parent="WIyWlLk6GJQsqaUBKTNV-1" edge="1">
          <mxGeometry relative="1" as="geometry">
            <mxPoint x="1899.8599999999997" y="370" as="sourcePoint" />
          </mxGeometry>
        </mxCell>
        <mxCell id="OBPURcOy8F1kF4xGN7Fw-3" value="" style="edgeStyle=orthogonalEdgeStyle;rounded=0;orthogonalLoop=1;jettySize=auto;html=1;strokeWidth=3;" parent="WIyWlLk6GJQsqaUBKTNV-1" source="OBPURcOy8F1kF4xGN7Fw-0" target="OBPURcOy8F1kF4xGN7Fw-2" edge="1">
          <mxGeometry relative="1" as="geometry" />
        </mxCell>
        <mxCell id="OBPURcOy8F1kF4xGN7Fw-0" value="&lt;font style=&quot;font-size: 18px;&quot;&gt;run command &lt;br&gt;abc_profile&lt;br&gt;&lt;/font&gt;" style="shape=parallelogram;html=1;strokeWidth=2;perimeter=parallelogramPerimeter;whiteSpace=wrap;rounded=1;arcSize=12;size=0.23;" parent="WIyWlLk6GJQsqaUBKTNV-1" vertex="1">
          <mxGeometry x="-101.14" y="640" width="190" height="80" as="geometry" />
        </mxCell>
        <mxCell id="OBPURcOy8F1kF4xGN7Fw-10" value="" style="edgeStyle=orthogonalEdgeStyle;rounded=0;orthogonalLoop=1;jettySize=auto;html=1;strokeWidth=3;" parent="WIyWlLk6GJQsqaUBKTNV-1" source="OBPURcOy8F1kF4xGN7Fw-2" target="OBPURcOy8F1kF4xGN7Fw-9" edge="1">
          <mxGeometry relative="1" as="geometry" />
        </mxCell>
        <mxCell id="OBPURcOy8F1kF4xGN7Fw-2" value="&lt;font style=&quot;font-size: 18px;&quot;&gt;get player id then find it in abc_profiles table&lt;br&gt;&lt;/font&gt;" style="rounded=1;whiteSpace=wrap;html=1;absoluteArcSize=1;arcSize=14;strokeWidth=2;" parent="WIyWlLk6GJQsqaUBKTNV-1" vertex="1">
          <mxGeometry x="-126.14" y="790" width="240" height="100" as="geometry" />
        </mxCell>
        <mxCell id="khPwtYyF7q92nj60VyBp-10" value="" style="edgeStyle=orthogonalEdgeStyle;rounded=0;orthogonalLoop=1;jettySize=auto;html=1;strokeWidth=3;" parent="WIyWlLk6GJQsqaUBKTNV-1" source="OBPURcOy8F1kF4xGN7Fw-4" target="khPwtYyF7q92nj60VyBp-9" edge="1">
          <mxGeometry relative="1" as="geometry" />
        </mxCell>
        <mxCell id="OBPURcOy8F1kF4xGN7Fw-4" value="&lt;font style=&quot;font-size: 18px;&quot;&gt;display player &lt;br&gt;profile&lt;br&gt;&lt;/font&gt;" style="strokeWidth=2;html=1;shape=mxgraph.flowchart.display;whiteSpace=wrap;" parent="WIyWlLk6GJQsqaUBKTNV-1" vertex="1">
          <mxGeometry x="7.859999999999999" y="1060" width="185" height="100" as="geometry" />
        </mxCell>
        <mxCell id="khPwtYyF7q92nj60VyBp-11" value="" style="edgeStyle=orthogonalEdgeStyle;rounded=0;orthogonalLoop=1;jettySize=auto;html=1;strokeWidth=3;" parent="WIyWlLk6GJQsqaUBKTNV-1" source="OBPURcOy8F1kF4xGN7Fw-8" target="khPwtYyF7q92nj60VyBp-9" edge="1">
          <mxGeometry relative="1" as="geometry" />
        </mxCell>
        <mxCell id="OBPURcOy8F1kF4xGN7Fw-8" value="&lt;font style=&quot;font-size: 18px;&quot;&gt;display error&lt;br&gt;not found&lt;br&gt;&lt;/font&gt;" style="strokeWidth=2;html=1;shape=mxgraph.flowchart.display;whiteSpace=wrap;" parent="WIyWlLk6GJQsqaUBKTNV-1" vertex="1">
          <mxGeometry x="-212.14" y="1060" width="185" height="100" as="geometry" />
        </mxCell>
        <mxCell id="OBPURcOy8F1kF4xGN7Fw-11" value="" style="edgeStyle=orthogonalEdgeStyle;rounded=0;orthogonalLoop=1;jettySize=auto;html=1;strokeWidth=3;" parent="WIyWlLk6GJQsqaUBKTNV-1" source="OBPURcOy8F1kF4xGN7Fw-9" target="OBPURcOy8F1kF4xGN7Fw-8" edge="1">
          <mxGeometry relative="1" as="geometry">
            <Array as="points">
              <mxPoint x="-119.14" y="990" />
            </Array>
          </mxGeometry>
        </mxCell>
        <mxCell id="OBPURcOy8F1kF4xGN7Fw-18" value="&lt;font style=&quot;font-size: 18px;&quot;&gt;NO&lt;/font&gt;" style="edgeLabel;html=1;align=center;verticalAlign=middle;resizable=0;points=[];" parent="OBPURcOy8F1kF4xGN7Fw-11" vertex="1" connectable="0">
          <mxGeometry x="0.2589" relative="1" as="geometry">
            <mxPoint y="-1" as="offset" />
          </mxGeometry>
        </mxCell>
        <mxCell id="OBPURcOy8F1kF4xGN7Fw-12" value="" style="edgeStyle=orthogonalEdgeStyle;rounded=0;orthogonalLoop=1;jettySize=auto;html=1;strokeWidth=3;" parent="WIyWlLk6GJQsqaUBKTNV-1" source="OBPURcOy8F1kF4xGN7Fw-9" target="OBPURcOy8F1kF4xGN7Fw-4" edge="1">
          <mxGeometry relative="1" as="geometry">
            <Array as="points">
              <mxPoint x="100.86" y="990" />
            </Array>
          </mxGeometry>
        </mxCell>
        <mxCell id="OBPURcOy8F1kF4xGN7Fw-14" value="&lt;font style=&quot;font-size: 18px;&quot;&gt;YES&lt;/font&gt;" style="edgeLabel;html=1;align=center;verticalAlign=middle;resizable=0;points=[];" parent="OBPURcOy8F1kF4xGN7Fw-12" vertex="1" connectable="0">
          <mxGeometry x="0.2013" relative="1" as="geometry">
            <mxPoint y="1" as="offset" />
          </mxGeometry>
        </mxCell>
        <mxCell id="OBPURcOy8F1kF4xGN7Fw-9" value="&lt;font style=&quot;font-size: 18px;&quot;&gt;FOUND?&lt;/font&gt;" style="strokeWidth=2;html=1;shape=mxgraph.flowchart.decision;whiteSpace=wrap;" parent="WIyWlLk6GJQsqaUBKTNV-1" vertex="1">
          <mxGeometry x="-56.14" y="940" width="100" height="100" as="geometry" />
        </mxCell>
        <mxCell id="qRgpjpJHurqTUc2hLSrm-0" value="&lt;font style=&quot;font-size: 18px;&quot;&gt;abc_profiles&lt;br&gt;table&lt;/font&gt;" style="strokeWidth=2;html=1;shape=mxgraph.flowchart.merge_or_storage;whiteSpace=wrap;strokeColor=default;horizontal=1;verticalAlign=top;" parent="WIyWlLk6GJQsqaUBKTNV-1" vertex="1">
          <mxGeometry x="19.86" y="210" width="150" height="80" as="geometry" />
        </mxCell>
        <mxCell id="DJKlfyShg2BTwDeF1bZb-0" value="GAME ALGORITHM" style="shape=table;startSize=60;container=1;collapsible=0;childLayout=tableLayout;fontSize=18;" parent="WIyWlLk6GJQsqaUBKTNV-1" vertex="1">
          <mxGeometry x="249.86" y="560" width="960" height="1200" as="geometry" />
        </mxCell>
        <mxCell id="DJKlfyShg2BTwDeF1bZb-1" value="" style="shape=tableRow;horizontal=0;startSize=0;swimlaneHead=0;swimlaneBody=0;strokeColor=inherit;top=0;left=0;bottom=0;right=0;collapsible=0;dropTarget=0;fillColor=none;points=[[0,0.5],[1,0.5]];portConstraint=eastwest;" parent="DJKlfyShg2BTwDeF1bZb-0" vertex="1">
          <mxGeometry y="60" width="960" height="1140" as="geometry" />
        </mxCell>
        <mxCell id="DJKlfyShg2BTwDeF1bZb-2" value="" style="shape=partialRectangle;html=1;whiteSpace=wrap;connectable=0;strokeColor=inherit;overflow=hidden;fillColor=none;top=0;left=0;bottom=0;right=0;pointerEvents=1;" parent="DJKlfyShg2BTwDeF1bZb-1" vertex="1">
          <mxGeometry width="960" height="1140" as="geometry">
            <mxRectangle width="960" height="1140" as="alternateBounds" />
          </mxGeometry>
        </mxCell>
        <mxCell id="DJKlfyShg2BTwDeF1bZb-25" value="" style="edgeStyle=orthogonalEdgeStyle;rounded=0;orthogonalLoop=1;jettySize=auto;html=1;strokeWidth=3;" parent="WIyWlLk6GJQsqaUBKTNV-1" source="DJKlfyShg2BTwDeF1bZb-3" target="DJKlfyShg2BTwDeF1bZb-24" edge="1">
          <mxGeometry relative="1" as="geometry" />
        </mxCell>
        <mxCell id="DJKlfyShg2BTwDeF1bZb-3" value="&lt;font style=&quot;font-size: 18px;&quot;&gt;START&lt;/font&gt;" style="strokeWidth=2;html=1;shape=mxgraph.flowchart.terminator;whiteSpace=wrap;" parent="WIyWlLk6GJQsqaUBKTNV-1" vertex="1">
          <mxGeometry x="679.86" y="640" width="100" height="50" as="geometry" />
        </mxCell>
        <mxCell id="DJKlfyShg2BTwDeF1bZb-12" value="" style="edgeStyle=orthogonalEdgeStyle;rounded=0;orthogonalLoop=1;jettySize=auto;html=1;strokeWidth=3;" parent="WIyWlLk6GJQsqaUBKTNV-1" edge="1">
          <mxGeometry relative="1" as="geometry">
            <mxPoint x="-545" y="1050" as="targetPoint" />
          </mxGeometry>
        </mxCell>
        <mxCell id="DJKlfyShg2BTwDeF1bZb-14" value="" style="edgeStyle=orthogonalEdgeStyle;rounded=0;orthogonalLoop=1;jettySize=auto;html=1;strokeWidth=3;" parent="WIyWlLk6GJQsqaUBKTNV-1" edge="1">
          <mxGeometry relative="1" as="geometry">
            <mxPoint x="-113.14999999999986" y="960" as="sourcePoint" />
          </mxGeometry>
        </mxCell>
        <mxCell id="DJKlfyShg2BTwDeF1bZb-20" value="" style="edgeStyle=orthogonalEdgeStyle;rounded=0;orthogonalLoop=1;jettySize=auto;html=1;strokeWidth=3;" parent="WIyWlLk6GJQsqaUBKTNV-1" edge="1">
          <mxGeometry relative="1" as="geometry">
            <mxPoint x="215" y="1053.9999999999995" as="targetPoint" />
          </mxGeometry>
        </mxCell>
        <mxCell id="DJKlfyShg2BTwDeF1bZb-18" value="" style="edgeStyle=orthogonalEdgeStyle;rounded=0;orthogonalLoop=1;jettySize=auto;html=1;strokeWidth=3;" parent="WIyWlLk6GJQsqaUBKTNV-1" edge="1">
          <mxGeometry relative="1" as="geometry">
            <mxPoint x="-545" y="1150" as="sourcePoint" />
          </mxGeometry>
        </mxCell>
        <mxCell id="DJKlfyShg2BTwDeF1bZb-16" value="" style="edgeStyle=orthogonalEdgeStyle;rounded=0;orthogonalLoop=1;jettySize=auto;html=1;strokeWidth=3;" parent="WIyWlLk6GJQsqaUBKTNV-1" edge="1">
          <mxGeometry relative="1" as="geometry">
            <mxPoint x="-294" y="1010" as="sourcePoint" />
          </mxGeometry>
        </mxCell>
        <mxCell id="DJKlfyShg2BTwDeF1bZb-22" value="" style="edgeStyle=orthogonalEdgeStyle;rounded=0;orthogonalLoop=1;jettySize=auto;html=1;strokeWidth=3;" parent="WIyWlLk6GJQsqaUBKTNV-1" edge="1">
          <mxGeometry relative="1" as="geometry">
            <mxPoint x="-123.14999999999986" y="1103.9999999999995" as="targetPoint" />
          </mxGeometry>
        </mxCell>
        <mxCell id="DJKlfyShg2BTwDeF1bZb-27" value="" style="edgeStyle=orthogonalEdgeStyle;rounded=0;orthogonalLoop=1;jettySize=auto;html=1;strokeWidth=3;" parent="WIyWlLk6GJQsqaUBKTNV-1" source="DJKlfyShg2BTwDeF1bZb-24" target="DJKlfyShg2BTwDeF1bZb-26" edge="1">
          <mxGeometry relative="1" as="geometry" />
        </mxCell>
        <mxCell id="DJKlfyShg2BTwDeF1bZb-24" value="&lt;font style=&quot;font-size: 18px;&quot;&gt;player run start command&lt;br&gt;&lt;/font&gt;" style="shape=parallelogram;html=1;strokeWidth=2;perimeter=parallelogramPerimeter;whiteSpace=wrap;rounded=1;arcSize=12;size=0.23;spacingLeft=20;spacingRight=20;" parent="WIyWlLk6GJQsqaUBKTNV-1" vertex="1">
          <mxGeometry x="634.86" y="740" width="190" height="80" as="geometry" />
        </mxCell>
        <mxCell id="DJKlfyShg2BTwDeF1bZb-38" value="" style="edgeStyle=orthogonalEdgeStyle;rounded=0;orthogonalLoop=1;jettySize=auto;html=1;strokeWidth=3;" parent="WIyWlLk6GJQsqaUBKTNV-1" source="DJKlfyShg2BTwDeF1bZb-26" target="DJKlfyShg2BTwDeF1bZb-36" edge="1">
          <mxGeometry relative="1" as="geometry" />
        </mxCell>
        <mxCell id="DJKlfyShg2BTwDeF1bZb-94" value="" style="edgeStyle=orthogonalEdgeStyle;rounded=0;orthogonalLoop=1;jettySize=auto;html=1;strokeWidth=3;" parent="WIyWlLk6GJQsqaUBKTNV-1" source="DJKlfyShg2BTwDeF1bZb-26" target="DJKlfyShg2BTwDeF1bZb-34" edge="1">
          <mxGeometry relative="1" as="geometry" />
        </mxCell>
        <mxCell id="DJKlfyShg2BTwDeF1bZb-26" value="&lt;font style=&quot;font-size: 18px;&quot;&gt;create private thread channel, then invite player who run the command into thread&lt;br&gt;&lt;/font&gt;" style="rounded=1;whiteSpace=wrap;html=1;absoluteArcSize=1;arcSize=14;strokeWidth=2;spacingLeft=10;spacingRight=10;" parent="WIyWlLk6GJQsqaUBKTNV-1" vertex="1">
          <mxGeometry x="289.36" y="750" width="210" height="100" as="geometry" />
        </mxCell>
        <mxCell id="DJKlfyShg2BTwDeF1bZb-43" value="" style="edgeStyle=orthogonalEdgeStyle;rounded=0;orthogonalLoop=1;jettySize=auto;html=1;strokeWidth=3;" parent="WIyWlLk6GJQsqaUBKTNV-1" source="DJKlfyShg2BTwDeF1bZb-29" target="DJKlfyShg2BTwDeF1bZb-31" edge="1">
          <mxGeometry relative="1" as="geometry" />
        </mxCell>
        <mxCell id="DJKlfyShg2BTwDeF1bZb-29" value="&lt;font style=&quot;font-size: 18px;&quot;&gt;player type answer in chat&lt;br&gt;&lt;/font&gt;" style="shape=parallelogram;html=1;strokeWidth=2;perimeter=parallelogramPerimeter;whiteSpace=wrap;rounded=1;arcSize=12;size=0.23;spacingLeft=20;spacingRight=20;" parent="WIyWlLk6GJQsqaUBKTNV-1" vertex="1">
          <mxGeometry x="301.86" y="1048" width="190" height="80" as="geometry" />
        </mxCell>
        <mxCell id="DJKlfyShg2BTwDeF1bZb-45" value="" style="edgeStyle=orthogonalEdgeStyle;rounded=0;orthogonalLoop=1;jettySize=auto;html=1;strokeWidth=3;" parent="WIyWlLk6GJQsqaUBKTNV-1" source="DJKlfyShg2BTwDeF1bZb-31" target="DJKlfyShg2BTwDeF1bZb-44" edge="1">
          <mxGeometry relative="1" as="geometry" />
        </mxCell>
        <mxCell id="DJKlfyShg2BTwDeF1bZb-67" value="" style="edgeStyle=orthogonalEdgeStyle;rounded=0;orthogonalLoop=1;jettySize=auto;html=1;strokeWidth=3;" parent="WIyWlLk6GJQsqaUBKTNV-1" source="DJKlfyShg2BTwDeF1bZb-31" target="DJKlfyShg2BTwDeF1bZb-59" edge="1">
          <mxGeometry relative="1" as="geometry">
            <Array as="points">
              <mxPoint x="589.86" y="1218" />
              <mxPoint x="589.86" y="1218" />
            </Array>
          </mxGeometry>
        </mxCell>
        <mxCell id="DJKlfyShg2BTwDeF1bZb-31" value="&lt;font style=&quot;font-size: 18px;&quot;&gt;bot collect all first message from players in the thread, then consider it as player answer&lt;br&gt;&lt;/font&gt;" style="rounded=1;whiteSpace=wrap;html=1;absoluteArcSize=1;arcSize=14;strokeWidth=2;spacingLeft=10;spacingRight=10;" parent="WIyWlLk6GJQsqaUBKTNV-1" vertex="1">
          <mxGeometry x="291.36" y="1178" width="210" height="120" as="geometry" />
        </mxCell>
        <mxCell id="DJKlfyShg2BTwDeF1bZb-34" value="&lt;font style=&quot;font-size: 18px;&quot;&gt;abc_rooms&lt;br&gt;table&lt;/font&gt;" style="strokeWidth=2;html=1;shape=mxgraph.flowchart.merge_or_storage;whiteSpace=wrap;verticalAlign=top;" parent="WIyWlLk6GJQsqaUBKTNV-1" vertex="1">
          <mxGeometry x="329.36" y="640" width="130" height="70" as="geometry" />
        </mxCell>
        <mxCell id="DJKlfyShg2BTwDeF1bZb-40" value="" style="edgeStyle=orthogonalEdgeStyle;rounded=0;orthogonalLoop=1;jettySize=auto;html=1;strokeWidth=3;" parent="WIyWlLk6GJQsqaUBKTNV-1" source="DJKlfyShg2BTwDeF1bZb-36" target="DJKlfyShg2BTwDeF1bZb-39" edge="1">
          <mxGeometry relative="1" as="geometry" />
        </mxCell>
        <mxCell id="DJKlfyShg2BTwDeF1bZb-76" value="" style="edgeStyle=orthogonalEdgeStyle;rounded=0;orthogonalLoop=1;jettySize=auto;html=1;" parent="WIyWlLk6GJQsqaUBKTNV-1" source="DJKlfyShg2BTwDeF1bZb-36" target="DJKlfyShg2BTwDeF1bZb-39" edge="1">
          <mxGeometry relative="1" as="geometry" />
        </mxCell>
        <mxCell id="DJKlfyShg2BTwDeF1bZb-36" value="&lt;font style=&quot;font-size: 18px;&quot;&gt;display channel created message&lt;br&gt;&lt;/font&gt;" style="strokeWidth=2;html=1;shape=mxgraph.flowchart.display;whiteSpace=wrap;spacingLeft=10;spacingRight=10;" parent="WIyWlLk6GJQsqaUBKTNV-1" vertex="1">
          <mxGeometry x="301.86" y="900" width="185" height="100" as="geometry" />
        </mxCell>
        <mxCell id="DJKlfyShg2BTwDeF1bZb-42" value="" style="edgeStyle=orthogonalEdgeStyle;rounded=0;orthogonalLoop=1;jettySize=auto;html=1;strokeWidth=3;" parent="WIyWlLk6GJQsqaUBKTNV-1" source="DJKlfyShg2BTwDeF1bZb-39" target="DJKlfyShg2BTwDeF1bZb-29" edge="1">
          <mxGeometry relative="1" as="geometry">
            <Array as="points">
              <mxPoint x="670" y="1088" />
            </Array>
          </mxGeometry>
        </mxCell>
        <mxCell id="DJKlfyShg2BTwDeF1bZb-39" value="&lt;font style=&quot;font-size: 18px;&quot;&gt;start the game round&lt;br&gt;&lt;/font&gt;" style="rounded=1;whiteSpace=wrap;html=1;absoluteArcSize=1;arcSize=14;strokeWidth=2;spacingLeft=10;spacingRight=10;" parent="WIyWlLk6GJQsqaUBKTNV-1" vertex="1">
          <mxGeometry x="611.86" y="890" width="210" height="120" as="geometry" />
        </mxCell>
        <mxCell id="DJKlfyShg2BTwDeF1bZb-47" value="" style="edgeStyle=orthogonalEdgeStyle;rounded=0;orthogonalLoop=1;jettySize=auto;html=1;strokeWidth=3;" parent="WIyWlLk6GJQsqaUBKTNV-1" source="DJKlfyShg2BTwDeF1bZb-44" target="DJKlfyShg2BTwDeF1bZb-46" edge="1">
          <mxGeometry relative="1" as="geometry" />
        </mxCell>
        <mxCell id="DJKlfyShg2BTwDeF1bZb-44" value="&lt;font style=&quot;font-size: 18px;&quot;&gt;another player join the game&lt;br&gt;&lt;/font&gt;" style="shape=parallelogram;html=1;strokeWidth=2;perimeter=parallelogramPerimeter;whiteSpace=wrap;rounded=1;arcSize=12;size=0.23;spacingLeft=20;spacingRight=20;spacing=2;" parent="WIyWlLk6GJQsqaUBKTNV-1" vertex="1">
          <mxGeometry x="301.36" y="1348" width="190" height="80" as="geometry" />
        </mxCell>
        <mxCell id="khPwtYyF7q92nj60VyBp-5" value="" style="edgeStyle=orthogonalEdgeStyle;rounded=0;orthogonalLoop=1;jettySize=auto;html=1;strokeWidth=3;" parent="WIyWlLk6GJQsqaUBKTNV-1" source="DJKlfyShg2BTwDeF1bZb-46" target="DJKlfyShg2BTwDeF1bZb-54" edge="1">
          <mxGeometry relative="1" as="geometry" />
        </mxCell>
        <mxCell id="DJKlfyShg2BTwDeF1bZb-46" value="&lt;font style=&quot;font-size: 18px;&quot;&gt;find the current running game then get the room id&lt;br&gt;&lt;/font&gt;" style="rounded=1;whiteSpace=wrap;html=1;absoluteArcSize=1;arcSize=14;strokeWidth=2;spacingLeft=10;spacingRight=10;" parent="WIyWlLk6GJQsqaUBKTNV-1" vertex="1">
          <mxGeometry x="291.36" y="1508" width="210" height="120" as="geometry" />
        </mxCell>
        <mxCell id="DJKlfyShg2BTwDeF1bZb-78" value="" style="edgeStyle=orthogonalEdgeStyle;rounded=0;orthogonalLoop=1;jettySize=auto;html=1;strokeWidth=3;" parent="WIyWlLk6GJQsqaUBKTNV-1" source="DJKlfyShg2BTwDeF1bZb-50" target="DJKlfyShg2BTwDeF1bZb-46" edge="1">
          <mxGeometry relative="1" as="geometry" />
        </mxCell>
        <mxCell id="DJKlfyShg2BTwDeF1bZb-50" value="&lt;font style=&quot;font-size: 18px;&quot;&gt;abc_rooms&lt;br&gt;table&lt;/font&gt;" style="strokeWidth=2;html=1;shape=mxgraph.flowchart.merge_or_storage;whiteSpace=wrap;verticalAlign=top;" parent="WIyWlLk6GJQsqaUBKTNV-1" vertex="1">
          <mxGeometry x="331.86" y="1670" width="130" height="70" as="geometry" />
        </mxCell>
        <mxCell id="DJKlfyShg2BTwDeF1bZb-74" value="" style="edgeStyle=orthogonalEdgeStyle;rounded=0;orthogonalLoop=1;jettySize=auto;html=1;strokeWidth=3;" parent="WIyWlLk6GJQsqaUBKTNV-1" source="DJKlfyShg2BTwDeF1bZb-54" target="DJKlfyShg2BTwDeF1bZb-56" edge="1">
          <mxGeometry relative="1" as="geometry" />
        </mxCell>
        <mxCell id="DJKlfyShg2BTwDeF1bZb-54" value="&lt;font style=&quot;font-size: 18px;&quot;&gt;display the channel for player to join&lt;br&gt;&lt;/font&gt;" style="strokeWidth=2;html=1;shape=mxgraph.flowchart.display;whiteSpace=wrap;spacingLeft=10;spacingRight=10;" parent="WIyWlLk6GJQsqaUBKTNV-1" vertex="1">
          <mxGeometry x="550" y="1518" width="185" height="100" as="geometry" />
        </mxCell>
        <mxCell id="DJKlfyShg2BTwDeF1bZb-77" value="" style="edgeStyle=orthogonalEdgeStyle;rounded=0;orthogonalLoop=1;jettySize=auto;html=1;strokeWidth=3;" parent="WIyWlLk6GJQsqaUBKTNV-1" source="DJKlfyShg2BTwDeF1bZb-56" target="DJKlfyShg2BTwDeF1bZb-31" edge="1">
          <mxGeometry relative="1" as="geometry">
            <Array as="points">
              <mxPoint x="640" y="1258" />
            </Array>
          </mxGeometry>
        </mxCell>
        <mxCell id="DJKlfyShg2BTwDeF1bZb-56" value="&lt;font style=&quot;font-size: 18px;&quot;&gt;player join and answer in chat&lt;br&gt;&lt;/font&gt;" style="shape=parallelogram;html=1;strokeWidth=2;perimeter=parallelogramPerimeter;whiteSpace=wrap;rounded=1;arcSize=12;size=0.23;spacingLeft=20;spacingRight=20;spacing=2;" parent="WIyWlLk6GJQsqaUBKTNV-1" vertex="1">
          <mxGeometry x="547.5" y="1380" width="190" height="80" as="geometry" />
        </mxCell>
        <mxCell id="khPwtYyF7q92nj60VyBp-4" value="" style="edgeStyle=orthogonalEdgeStyle;rounded=0;orthogonalLoop=1;jettySize=auto;html=1;strokeWidth=3;" parent="WIyWlLk6GJQsqaUBKTNV-1" source="DJKlfyShg2BTwDeF1bZb-59" target="DJKlfyShg2BTwDeF1bZb-79" edge="1">
          <mxGeometry relative="1" as="geometry" />
        </mxCell>
        <mxCell id="c4b9u9jTLg_jQjDu-0BK-1" value="" style="edgeStyle=orthogonalEdgeStyle;rounded=0;orthogonalLoop=1;jettySize=auto;html=1;strokeWidth=3;" edge="1" parent="WIyWlLk6GJQsqaUBKTNV-1" source="DJKlfyShg2BTwDeF1bZb-59" target="c4b9u9jTLg_jQjDu-0BK-0">
          <mxGeometry relative="1" as="geometry">
            <Array as="points">
              <mxPoint x="800" y="1140" />
              <mxPoint x="905" y="1140" />
            </Array>
          </mxGeometry>
        </mxCell>
        <mxCell id="c4b9u9jTLg_jQjDu-0BK-3" value="" style="edgeStyle=orthogonalEdgeStyle;rounded=0;orthogonalLoop=1;jettySize=auto;html=1;strokeWidth=3;" edge="1" parent="WIyWlLk6GJQsqaUBKTNV-1" source="DJKlfyShg2BTwDeF1bZb-59" target="c4b9u9jTLg_jQjDu-0BK-2">
          <mxGeometry relative="1" as="geometry">
            <Array as="points">
              <mxPoint x="800" y="1140" />
              <mxPoint x="757" y="1140" />
            </Array>
          </mxGeometry>
        </mxCell>
        <mxCell id="DJKlfyShg2BTwDeF1bZb-59" value="&lt;font style=&quot;font-size: 18px;&quot;&gt;insert data to abc_rounds &amp;amp; abc_words_alt (wrong answers)&lt;br&gt;&lt;/font&gt;" style="rounded=1;whiteSpace=wrap;html=1;absoluteArcSize=1;arcSize=14;strokeWidth=2;spacingLeft=10;spacingRight=10;" parent="WIyWlLk6GJQsqaUBKTNV-1" vertex="1">
          <mxGeometry x="670" y="1170" width="210" height="120" as="geometry" />
        </mxCell>
        <mxCell id="DJKlfyShg2BTwDeF1bZb-106" value="" style="edgeStyle=orthogonalEdgeStyle;rounded=0;orthogonalLoop=1;jettySize=auto;html=1;strokeWidth=3;" parent="WIyWlLk6GJQsqaUBKTNV-1" edge="1">
          <mxGeometry relative="1" as="geometry">
            <mxPoint x="793.3600000000001" y="1448" as="sourcePoint" />
          </mxGeometry>
        </mxCell>
        <mxCell id="DJKlfyShg2BTwDeF1bZb-107" value="&lt;font style=&quot;font-size: 18px;&quot;&gt;YES&lt;/font&gt;" style="edgeLabel;html=1;align=center;verticalAlign=middle;resizable=0;points=[];" parent="DJKlfyShg2BTwDeF1bZb-106" vertex="1" connectable="0">
          <mxGeometry x="-0.2902" y="2" relative="1" as="geometry">
            <mxPoint as="offset" />
          </mxGeometry>
        </mxCell>
        <mxCell id="DJKlfyShg2BTwDeF1bZb-83" value="" style="edgeStyle=orthogonalEdgeStyle;rounded=0;orthogonalLoop=1;jettySize=auto;html=1;strokeWidth=3;" parent="WIyWlLk6GJQsqaUBKTNV-1" source="DJKlfyShg2BTwDeF1bZb-79" edge="1">
          <mxGeometry relative="1" as="geometry">
            <mxPoint x="1034.86" y="1088" as="targetPoint" />
          </mxGeometry>
        </mxCell>
        <mxCell id="DJKlfyShg2BTwDeF1bZb-79" value="&lt;font style=&quot;font-size: 18px;&quot;&gt;check current round (CR) with game round (GR)&lt;br&gt;&lt;/font&gt;" style="rounded=1;whiteSpace=wrap;html=1;absoluteArcSize=1;arcSize=14;strokeWidth=2;spacingLeft=10;spacingRight=10;" parent="WIyWlLk6GJQsqaUBKTNV-1" vertex="1">
          <mxGeometry x="929.86" y="1158" width="210" height="120" as="geometry" />
        </mxCell>
        <mxCell id="DJKlfyShg2BTwDeF1bZb-84" value="" style="edgeStyle=orthogonalEdgeStyle;rounded=0;orthogonalLoop=1;jettySize=auto;html=1;strokeWidth=3;" parent="WIyWlLk6GJQsqaUBKTNV-1" source="DJKlfyShg2BTwDeF1bZb-82" target="DJKlfyShg2BTwDeF1bZb-39" edge="1">
          <mxGeometry relative="1" as="geometry">
            <Array as="points">
              <mxPoint x="1034.86" y="950" />
            </Array>
          </mxGeometry>
        </mxCell>
        <mxCell id="DJKlfyShg2BTwDeF1bZb-86" value="&lt;font style=&quot;font-size: 18px;&quot;&gt;NO&lt;/font&gt;" style="edgeLabel;html=1;align=center;verticalAlign=middle;resizable=0;points=[];" parent="DJKlfyShg2BTwDeF1bZb-84" vertex="1" connectable="0">
          <mxGeometry x="-0.6887" relative="1" as="geometry">
            <mxPoint y="11" as="offset" />
          </mxGeometry>
        </mxCell>
        <mxCell id="khPwtYyF7q92nj60VyBp-7" value="" style="edgeStyle=orthogonalEdgeStyle;rounded=0;orthogonalLoop=1;jettySize=auto;html=1;strokeWidth=3;" parent="WIyWlLk6GJQsqaUBKTNV-1" source="DJKlfyShg2BTwDeF1bZb-82" target="DJKlfyShg2BTwDeF1bZb-95" edge="1">
          <mxGeometry relative="1" as="geometry">
            <Array as="points">
              <mxPoint x="1180" y="1054.9999999999998" />
              <mxPoint x="1180" y="1390" />
            </Array>
          </mxGeometry>
        </mxCell>
        <mxCell id="khPwtYyF7q92nj60VyBp-8" value="&lt;font style=&quot;font-size: 18px;&quot;&gt;YES&lt;/font&gt;" style="edgeLabel;html=1;align=center;verticalAlign=middle;resizable=0;points=[];" parent="khPwtYyF7q92nj60VyBp-7" vertex="1" connectable="0">
          <mxGeometry x="-0.878" y="-2" relative="1" as="geometry">
            <mxPoint x="11" y="-2" as="offset" />
          </mxGeometry>
        </mxCell>
        <mxCell id="DJKlfyShg2BTwDeF1bZb-82" value="&lt;font size=&quot;3&quot;&gt;CR == GR?&lt;br&gt;&lt;/font&gt;" style="strokeWidth=2;html=1;shape=mxgraph.flowchart.decision;whiteSpace=wrap;" parent="WIyWlLk6GJQsqaUBKTNV-1" vertex="1">
          <mxGeometry x="982.36" y="1000" width="105" height="110" as="geometry" />
        </mxCell>
        <mxCell id="khPwtYyF7q92nj60VyBp-6" value="" style="edgeStyle=orthogonalEdgeStyle;rounded=0;orthogonalLoop=1;jettySize=auto;html=1;strokeWidth=3;" parent="WIyWlLk6GJQsqaUBKTNV-1" source="DJKlfyShg2BTwDeF1bZb-95" target="DJKlfyShg2BTwDeF1bZb-102" edge="1">
          <mxGeometry relative="1" as="geometry" />
        </mxCell>
        <mxCell id="DJKlfyShg2BTwDeF1bZb-95" value="&lt;font style=&quot;font-size: 18px;&quot;&gt;check player answers, give points and close the game&lt;br&gt;&lt;/font&gt;" style="rounded=1;whiteSpace=wrap;html=1;absoluteArcSize=1;arcSize=14;strokeWidth=2;spacingLeft=10;spacingRight=10;" parent="WIyWlLk6GJQsqaUBKTNV-1" vertex="1">
          <mxGeometry x="930.3600000000001" y="1330" width="210" height="120" as="geometry" />
        </mxCell>
        <mxCell id="DJKlfyShg2BTwDeF1bZb-101" value="" style="edgeStyle=orthogonalEdgeStyle;rounded=0;orthogonalLoop=1;jettySize=auto;html=1;strokeWidth=3;exitX=0.77;exitY=0.496;exitDx=0;exitDy=0;exitPerimeter=0;" parent="WIyWlLk6GJQsqaUBKTNV-1" source="DJKlfyShg2BTwDeF1bZb-98" target="DJKlfyShg2BTwDeF1bZb-95" edge="1">
          <mxGeometry relative="1" as="geometry" />
        </mxCell>
        <mxCell id="DJKlfyShg2BTwDeF1bZb-98" value="&lt;font style=&quot;font-size: 18px;&quot;&gt;abc_words&lt;br&gt;table&lt;/font&gt;" style="strokeWidth=2;html=1;shape=mxgraph.flowchart.merge_or_storage;whiteSpace=wrap;verticalAlign=top;" parent="WIyWlLk6GJQsqaUBKTNV-1" vertex="1">
          <mxGeometry x="760" y="1355" width="130" height="70" as="geometry" />
        </mxCell>
        <mxCell id="DJKlfyShg2BTwDeF1bZb-105" value="" style="edgeStyle=orthogonalEdgeStyle;rounded=0;orthogonalLoop=1;jettySize=auto;html=1;strokeWidth=3;" parent="WIyWlLk6GJQsqaUBKTNV-1" source="DJKlfyShg2BTwDeF1bZb-102" target="DJKlfyShg2BTwDeF1bZb-104" edge="1">
          <mxGeometry relative="1" as="geometry" />
        </mxCell>
        <mxCell id="DJKlfyShg2BTwDeF1bZb-102" value="&lt;font style=&quot;font-size: 18px;&quot;&gt;display game result&lt;br&gt;&lt;/font&gt;" style="strokeWidth=2;html=1;shape=mxgraph.flowchart.display;whiteSpace=wrap;spacingLeft=10;spacingRight=10;" parent="WIyWlLk6GJQsqaUBKTNV-1" vertex="1">
          <mxGeometry x="942.36" y="1508" width="185" height="100" as="geometry" />
        </mxCell>
        <mxCell id="DJKlfyShg2BTwDeF1bZb-104" value="&lt;font style=&quot;font-size: 18px;&quot;&gt;END&lt;/font&gt;" style="strokeWidth=2;html=1;shape=mxgraph.flowchart.terminator;whiteSpace=wrap;" parent="WIyWlLk6GJQsqaUBKTNV-1" vertex="1">
          <mxGeometry x="984.86" y="1660" width="100" height="50" as="geometry" />
        </mxCell>
        <mxCell id="khPwtYyF7q92nj60VyBp-2" value="&lt;font style=&quot;font-size: 18px;&quot;&gt;END&lt;/font&gt;" style="strokeWidth=2;html=1;shape=mxgraph.flowchart.terminator;whiteSpace=wrap;" parent="WIyWlLk6GJQsqaUBKTNV-1" vertex="1">
          <mxGeometry x="1000.36" y="450" width="140" height="60" as="geometry" />
        </mxCell>
        <mxCell id="khPwtYyF7q92nj60VyBp-9" value="&lt;font style=&quot;font-size: 18px;&quot;&gt;END&lt;/font&gt;" style="strokeWidth=2;html=1;shape=mxgraph.flowchart.terminator;whiteSpace=wrap;" parent="WIyWlLk6GJQsqaUBKTNV-1" vertex="1">
          <mxGeometry x="-76.14" y="1238" width="140" height="60" as="geometry" />
        </mxCell>
        <mxCell id="c4b9u9jTLg_jQjDu-0BK-0" value="&lt;font style=&quot;font-size: 18px;&quot;&gt;words_alt&lt;br&gt;table&lt;/font&gt;" style="strokeWidth=2;html=1;shape=mxgraph.flowchart.merge_or_storage;whiteSpace=wrap;verticalAlign=top;" vertex="1" parent="WIyWlLk6GJQsqaUBKTNV-1">
          <mxGeometry x="840" y="1030" width="130" height="70" as="geometry" />
        </mxCell>
        <mxCell id="c4b9u9jTLg_jQjDu-0BK-2" value="&lt;font style=&quot;font-size: 18px;&quot;&gt;abc_rounds&lt;br&gt;table&lt;/font&gt;" style="strokeWidth=2;html=1;shape=mxgraph.flowchart.merge_or_storage;whiteSpace=wrap;verticalAlign=top;" vertex="1" parent="WIyWlLk6GJQsqaUBKTNV-1">
          <mxGeometry x="691.86" y="1030" width="130" height="70" as="geometry" />
        </mxCell>
      </root>
    </mxGraphModel>
  </diagram>
</mxfile>
